<svg id="Layer_1" data-name="Layer 1" xmlns="http://www.w3.org/2000/svg" viewBox="0 0 164.26 225"><defs><style>.cls-1{fill:#e43466;}</style></defs><rect class="cls-1" x="77.92" y="21.29" width="21.59" height="22.92"/><path class="cls-1" d="M59.57,22.38a9,9,0,0,0,6.9-3.27H111a9,9,0,1,0-1.36-9.47H67.83a9.05,9.05,0,1,0-8.26,12.74Z"/><path class="cls-1" d="M88.72,0A7.42,7.42,0,0,0,81.3,7.41H96.13A7.41,7.41,0,0,0,88.72,0Z"/><path class="cls-1" d="M132.35,225a32,32,0,0,1-31.92-31.91c0-16.13,25.32-51.2,28.21-55.15l3.71-5.06,3.7,5.06c2.89,3.95,28.21,39,28.21,55.15A32,32,0,0,1,132.35,225Zm0-76.42c-10,14.46-22.73,35.75-22.73,44.51a22.73,22.73,0,0,0,45.46,0C155.08,184.33,142.36,163,132.35,148.58Z"/><path class="cls-1" d="M147.87,189.9A17.55,17.55,0,0,1,119.27,203a16.06,16.06,0,0,0,29-9.48A15.84,15.84,0,0,0,147.87,189.9Z"/><path class="cls-1" d="M158.67,107.56h-4.29V81a33.65,33.65,0,0,0-33.61-33.61H40.14A20.25,20.25,0,0,0,20.26,30.8H0v77.69H20.26A20.28,20.28,0,0,0,40.52,88.23v-.08h68.3a5,5,0,0,1,5,5v14.42h-5.36a2.37,2.37,0,0,0-2.37,2.36V121.6a2.37,2.37,0,0,0,2.37,2.36h50.23A2.36,2.36,0,0,0,161,121.6V109.92A2.36,2.36,0,0,0,158.67,107.56ZM30.5,88.15A10.34,10.34,0,0,1,20.18,98.54H9.87V40.74H20.18A10.33,10.33,0,0,1,30.5,51.05Zm113.85,18.52H123.67V93.14A15,15,0,0,0,108.74,78.2H40.44V57.31h80.25A23.68,23.68,0,0,1,144.35,81Z"/></svg>