<svg id="Layer_1" data-name="Layer 1" xmlns="http://www.w3.org/2000/svg" viewBox="0 0 216.17 225"><defs><style>.cls-1{fill:#005aca;}</style></defs><path class="cls-1" d="M161.41,65.5a4.22,4.22,0,1,0,4.22,4.22A4.22,4.22,0,0,0,161.41,65.5Z"/><path class="cls-1" d="M178.76,85c15.14,20.11,6,50.91,1.69,62.37a5.23,5.23,0,0,0,2.69,6.58h0a5.21,5.21,0,0,0,7.07-2.89c4.95-13.11,15.33-48-3.19-72.4a5.21,5.21,0,0,0-7.75-.51h0A5.17,5.17,0,0,0,178.76,85Z"/><path class="cls-1" d="M202.37,66.69C192.15,52.43,177.34,44,162.69,44h-.3c-19.86.16-31.92,10.32-41.62,18.5-3.92,3.3-7.48,6.27-10.86,8C101.13,6.7,45,.49,44.41.44L39.91,0,34,24.74a5.2,5.2,0,0,0,5.91,6.36h0c39.26-6.52,54.47,26.61,58.8,39.3a74.61,74.61,0,0,1-8.82-4.79C79.67,59.52,67,51.94,47,53.83c-12.89,1.23-25.57,9.71-34.81,23.28C.65,94.12-3,115.63,2.51,134.66c16.25,56.28,48.29,81,64.65,86.79,15,5.25,30.18,3.08,45.21-6.47,5.32,3.62,16.71,10,30.77,10a45.47,45.47,0,0,0,12-1.6c21.94-6,39.74-28.14,52.89-65.87C224.94,109,211.74,79.77,202.37,66.69ZM49.84,19.83c-1.32,0-2.66,0-4,.12l2-8.39A66.4,66.4,0,0,1,78.09,27.32,54.49,54.49,0,0,0,49.84,19.83ZM198.19,154.11c-11.93,34.23-27.31,54.15-45.7,59.22-19.56,5.39-36.44-8.55-36.6-8.68L112.82,202l-3.3,2.32c-13.15,9.27-26.24,11.71-38.9,7.26-18.79-6.6-45-34.4-58.1-79.85C7.87,115.68,11,97.44,20.83,83,28.2,72.13,38.37,65.11,48,64.2,64.61,62.61,75.16,69,84.49,74.54c7.09,4.25,13.79,8.27,21.66,7.66,8.09-.63,14.52-6,21.33-11.79,8.86-7.47,18.89-15.92,35-16h.21c11.14,0,23.08,7,31.22,18.39S213.57,110,198.19,154.11Z"/><path class="cls-1" d="M110.43,48.12l3.91-.66c13.09-2.21,22.1-7.4,26.78-15.41,6-10.3,2.2-21.18,2-21.64l-1.28-3.55L138.11,7c-14.36.41-24.1,4.6-29,12.45-6.82,11-.67,24.54-.4,25.11ZM118,24.89c2.92-4.72,9.68-6.59,16-7.23a15.64,15.64,0,0,1-1.92,9.14q-2.65,4.54-8.81,7.32a4.87,4.87,0,0,1-6.74-5.37A11.05,11.05,0,0,1,118,24.89Z"/></svg>