<svg id="Layer_1" data-name="Layer 1" xmlns="http://www.w3.org/2000/svg" viewBox="0 0 225 225"><defs><style>.cls-1{fill:#005aca;}</style></defs><path class="cls-1" d="M135,157l.37,20.16a9.76,9.76,0,0,1-16.1,7.44L43.21,119.94a9.77,9.77,0,0,1,0-14.88l76.08-64.64a9.78,9.78,0,0,1,16.1,7.45V70l81.14-.22a112.48,112.48,0,1,0-.7,87.24Z"/><path class="cls-1" d="M135,139h86.7a109.38,109.38,0,0,0,.4-51.52H135a9.76,9.76,0,0,1-9.75-9.76V55.68L57.59,112.77l68.26,56.28-.58-20.25A9.76,9.76,0,0,1,135,139Z"/></svg>