<?xml version="1.0" encoding="UTF-8"?><svg id="Layer_1" xmlns="http://www.w3.org/2000/svg" viewBox="0 0 443.8 225"><defs><style>.cls-1{fill:#fff;}</style></defs><path class="cls-1" d="M372.89,170.4c-12.1,0-24.22-2.62-35.56-7.85-23.37-10.8-40.45-31.59-46.86-57.06-7.25-28.82,1.39-59.96,23.32-80.45C343.23-2.44,376.39,.06,376.39,.06c2.79-.26,6.59,3.41,3.87,7.07l-8.12,8.79c-18.82,20.38-23.23,50.76-10.97,75.57h0c12.27,24.81,39.14,39.79,66.7,37.18l10.09-.94c6.56-1.18,6.92,4.4,4.39,7.79-21,28.17-56.63,34.88-69.45,34.88Z"/><path class="cls-1" d="M336.95,90.92l-3.56-28.24-.46-1.09c-.57-1.36-14.34-33.43-45.68-42.67-18.63-5.49-39.01-1.75-60.68,11.12-7.92-11.12-26.09-28.8-61.72-29.4-30.02-.52-54.47,9.16-71.31,27.93-14.8,16.49-22.49,39.28-21.72,63.65-13.28,.45-36.68,4.3-56.29,23.57C-.15,131.19-4.43,157.71,4.88,181.77c10.04,25.96,33.14,42.12,62.13,43.23h193.81c84.48,0,101.72-49.31,104.99-64.42,6.11-28.2-5.93-56.65-28.86-69.66Zm11.99,66c-6.89,31.82-39.83,50.81-88.12,50.81H67.34c-31.07-1.19-42.77-22.91-46.36-32.19-6.75-17.45-4.02-36.96,6.64-47.43,16.87-16.57,37.87-18.47,47.33-18.65,5.66-.11,16.18,1.77,16.18,1.77l-1.39-11.15c-2.89-23.1,3.18-44.96,16.65-59.97,13.41-14.93,33.5-22.61,58.17-22.2,39.21,.65,50.64,26.47,51.14,27.48,3.78,7.62,5.64,14.6,1.94,33.99-.68,3.56,2.75,8.24,6.32,8.89,5.07,.91,9.26-.42,10.49-4.91,4.69-17.17,2.54-30.15,.04-37.87,17.68-10.71,33.74-14.14,47.77-10.04,20.84,6.08,32.03,27.11,34.34,31.88l4.41,35.06,4.39,1.99c18.42,8.37,28.33,30.47,23.55,52.54Z"/></svg>